<svg width="638" height="90" viewBox="0 0 638 90" fill="none" xmlns="http://www.w3.org/2000/svg">

<path d="M48.6056 87.9449H4.3205C1.93435 87.9449 0 86.0105 0 83.6244V4.32916C0 0.347558 4.92874 -1.51462 7.56158 1.47224L51.8467 51.7118C52.5423 52.501 52.9261 53.5168 52.9261 54.5687V83.6244C52.9261 86.0105 50.9917 87.9449 48.6056 87.9449Z" fill="url(#paint0_linear_1120_325)"/>
<path d="M64.807 87.9449H109.092C111.478 87.9449 113.413 86.0105 113.413 83.6244V4.32916C113.413 0.347558 108.484 -1.51462 105.851 1.47224L61.5659 51.7118C60.8703 52.501 60.4865 53.5168 60.4865 54.5687V83.6244C60.4865 86.0105 62.4209 87.9449 64.807 87.9449Z" fill="url(#paint1_linear_1120_325)"/>
<defs>
<linearGradient id="paint0_linear_1120_325" x1="18.7235" y1="-7.10604" x2="18.7235" y2="87.9449" gradientUnits="userSpaceOnUse">
<stop stop-color="#B291FF"/>
<stop offset="1" stop-color="#1C94FF"/>
</linearGradient>
<linearGradient id="paint1_linear_1120_325" x1="94.6891" y1="-7.10604" x2="94.6891" y2="87.9449" gradientUnits="userSpaceOnUse">
<stop stop-color="#B291FF"/>
<stop offset="1" stop-color="#1C94FF"/>
</linearGradient>
</defs>
</svg>
